# xmcd
#
# Track frame offsets: 
#        150
#        25278
#        38654
#        61034
#        85050
#        109899
#        139321
#        163946
#        192876
#        206706
#        230918
#        256965
#        278074
#
# Disc length: 3833 seconds
#
# Revision: 1
# Processed by: cddbd v1.5.1PL0 Copyright (c) Steve Scherf et al.
# Submitted via: ExactAudioCopy v0.95a5
#
DISCID=b90ef70d
DTITLE=Luis Junior - Neibum
DYEAR=2003
DGENRE=downtempo_ Electronica
TTITLE0=nobody
TTITLE1=transporta
TTITLE2=hey girl
TTITLE3=luminis
TTITLE4=in your eyes
TTITLE5=atmosphere
TTITLE6=question
TTITLE7=condicion urbana
TTITLE8=brisa
TTITLE9=simetrico
TTITLE10=un viaggiatore
TTITLE11=retrospectiva
TTITLE12=das ende
EXTD=
EXTT0=
EXTT1=
EXTT2=
EXTT3=
EXTT4=
EXTT5=
EXTT6=
EXTT7=
EXTT8=
EXTT9=
EXTT10=
EXTT11=
EXTT12=
PLAYORDER=
